<svg width="72" height="56" viewBox="0 0 72 56" fill="none" xmlns="http://www.w3.org/2000/svg">
<path d="M28 55.5C28.8284 55.5 29.5 54.8284 29.5 54C29.5 53.1716 28.8284 52.5 28 52.5V55.5ZM28 3.5C28.8284 3.5 29.5 2.82843 29.5 2C29.5 1.17157 28.8284 0.5 28 0.5V3.5ZM44 52.5C43.1716 52.5 42.5 53.1716 42.5 54C42.5 54.8284 43.1716 55.5 44 55.5V52.5ZM44 0.5C43.1716 0.5 42.5 1.17157 42.5 2C42.5 2.82843 43.1716 3.5 44 3.5V0.5ZM28 52.5C14.469 52.5 3.5 41.531 3.5 28H0.5C0.5 43.1878 12.8122 55.5 28 55.5V52.5ZM3.5 28C3.5 14.469 14.469 3.5 28 3.5V0.5C12.8122 0.5 0.5 12.8122 0.5 28H3.5ZM44 55.5C59.1878 55.5 71.5 43.1878 71.5 28H68.5C68.5 41.531 57.531 52.5 44 52.5V55.5ZM71.5 28C71.5 12.8122 59.1878 0.5 44 0.5V3.5C57.531 3.5 68.5 14.469 68.5 28H71.5Z" fill="black"/>
</svg>
